<svg xmlns:xlink="http://www.w3.org/1999/xlink" xmlns="http://www.w3.org/2000/svg" width="300" height="148" preserveAspectRatio="xMidYMid meet" viewBox="-3.273606158284842e-15 -3.273606158284842e-15 300 48.03273010253906" overflow="visible"><defs id="SvgjsDefs1114"></defs><g id="SvgjsG1115" transform="scale(0.46071909035622804)" opacity="1"><g id="SvgjsG1116" class="q87vC2R_b" transform="translate(-7.105427357601002e-15, -7.105427357601002e-15) scale(1.04256)" light-content="false" non-strokable="false" fill="#FFFFFF"><path d="M24 0h76v76c0 13.255-10.745 24-24 24H0V24C0 10.745 10.745 0 24 0z" fill="#FFFFFF"></path></g><g id="SvgjsG1117" class="e1oatrx62O" transform="translate(15.059615494048622, 15.059241478702518) scale(0.7413677042594942)" light-content="true" non-strokable="false" fill="#2CA5FC"><path d="M24.777 38.979h-6.758A2.021 2.021 0 0 0 15.998 41v41.355c0 1.116.905 2.021 2.021 2.021h40.753a2.021 2.021 0 0 0 2.021-2.021V41a2.021 2.021 0 0 0-2.021-2.021H43.326V28.354H62.77a8.648 8.648 0 0 1 8.648 8.648v49.351a8.648 8.648 0 0 1-8.648 8.648H14.021a8.648 8.648 0 0 1-8.648-8.648V37.002a8.648 8.648 0 0 1 8.648-8.648h10.756v10.625z" fill="#2CA5FC"></path><path d="M75.223 61.021h6.758A2.021 2.021 0 0 0 84.002 59V17.646a2.021 2.021 0 0 0-2.021-2.021H41.228a2.021 2.021 0 0 0-2.021 2.021V59c0 1.116.905 2.021 2.021 2.021h15.446v10.625H37.23a8.648 8.648 0 0 1-8.648-8.648v-49.35A8.648 8.648 0 0 1 37.23 5h48.749a8.648 8.648 0 0 1 8.648 8.648v49.351a8.648 8.648 0 0 1-8.648 8.648H75.223V61.021zM24.777 28.354v10.625h-6.758" fill="#2CA5FC"></path></g><g id="SvgjsG1118" class="text" transform="translate(399.2760042724609, 73.12800122070311) scale(1)" light-content="false" fill="#FFFFFF"><path d="M-250.02 0L-240.9 0L-240.9 -15.06L-231.42 -15.06C-228.94 -15.06 -226.72 -15.46 -224.76 -16.26C-222.8 -17.06 -221.26 -18.12 -220.14 -19.44C-219.02 -20.76 -218.18 -22.19 -217.62 -23.73C-217.06 -25.27 -216.78 -26.86 -216.78 -28.5C-216.78 -32.3 -217.97 -35.5 -220.35 -38.1C-222.73 -40.7 -226.42 -42 -231.42 -42L-250.02 -42ZM-231.06 -23.64L-240.9 -23.64L-240.9 -33.36L-231.06 -33.36C-229.38 -33.36 -228.16 -32.87 -227.4 -31.89C-226.64 -30.91 -226.26 -29.78 -226.26 -28.5C-226.26 -27.18 -226.66 -26.04 -227.46 -25.08C-228.26 -24.12 -229.46 -23.64 -231.06 -23.64Z M-179.64 0L-170.46 0L-170.46 -42L-179.64 -42L-179.64 -25.92L-196.32 -25.92L-196.32 -42L-205.44 -42L-205.44 0L-196.32 0L-196.32 -17.22L-179.64 -17.22Z M-138.36 0.72C-135.12 0.72 -132.26 0.09 -129.78 -1.17C-127.3 -2.43 -125.36 -4.13 -123.96 -6.27C-122.56 -8.41 -121.51 -10.72 -120.81 -13.2C-120.11 -15.68 -119.76 -18.28 -119.76 -21C-119.76 -23.72 -120.11 -26.32 -120.81 -28.8C-121.51 -31.28 -122.56 -33.59 -123.96 -35.73C-125.36 -37.87 -127.3 -39.57 -129.78 -40.83C-132.26 -42.09 -135.12 -42.72 -138.36 -42.72C-141 -42.72 -143.39 -42.3 -145.53 -41.46C-147.67 -40.62 -149.44 -39.49 -150.84 -38.07C-152.24 -36.65 -153.41 -35 -154.35 -33.12C-155.29 -31.24 -155.97 -29.29 -156.39 -27.27C-156.81 -25.25 -157.02 -23.16 -157.02 -21C-157.02 -18.84 -156.81 -16.75 -156.39 -14.73C-155.97 -12.71 -155.29 -10.76 -154.35 -8.88C-153.41 -7 -152.24 -5.35 -150.84 -3.93C-149.44 -2.51 -147.67 -1.38 -145.53 -0.54C-143.39 0.3 -141 0.72 -138.36 0.72ZM-138.36 -8.1C-140 -8.1 -141.44 -8.49 -142.68 -9.27C-143.92 -10.05 -144.88 -11.09 -145.56 -12.39C-146.24 -13.69 -146.74 -15.06 -147.06 -16.5C-147.38 -17.94 -147.54 -19.44 -147.54 -21C-147.54 -23.08 -147.28 -25.05 -146.76 -26.91C-146.24 -28.77 -145.25 -30.41 -143.79 -31.83C-142.33 -33.25 -140.52 -33.96 -138.36 -33.96C-136.2 -33.96 -134.4 -33.27 -132.96 -31.89C-131.52 -30.51 -130.54 -28.89 -130.02 -27.03C-129.5 -25.17 -129.24 -23.16 -129.24 -21C-129.24 -18.96 -129.52 -17.01 -130.08 -15.15C-130.64 -13.29 -131.64 -11.65 -133.08 -10.23C-134.52 -8.81 -136.28 -8.1 -138.36 -8.1Z M-88.86 -33.24L-76.8 -33.24L-76.8 -42L-110.04 -42L-110.04 -33.24L-97.98 -33.24L-97.98 0L-88.86 0Z M-48.42 0.72C-45.18 0.72 -42.32 0.09 -39.84 -1.17C-37.36 -2.43 -35.42 -4.13 -34.02 -6.27C-32.62 -8.41 -31.57 -10.72 -30.87 -13.2C-30.17 -15.68 -29.82 -18.28 -29.82 -21C-29.82 -23.72 -30.17 -26.32 -30.87 -28.8C-31.57 -31.28 -32.62 -33.59 -34.02 -35.73C-35.42 -37.87 -37.36 -39.57 -39.84 -40.83C-42.32 -42.09 -45.18 -42.72 -48.42 -42.72C-51.06 -42.72 -53.45 -42.3 -55.59 -41.46C-57.73 -40.62 -59.5 -39.49 -60.9 -38.07C-62.3 -36.65 -63.47 -35 -64.41 -33.12C-65.35 -31.24 -66.03 -29.29 -66.45 -27.27C-66.87 -25.25 -67.08 -23.16 -67.08 -21C-67.08 -18.84 -66.87 -16.75 -66.45 -14.73C-66.03 -12.71 -65.35 -10.76 -64.41 -8.88C-63.47 -7 -62.3 -5.35 -60.9 -3.93C-59.5 -2.51 -57.73 -1.38 -55.59 -0.54C-53.45 0.3 -51.06 0.72 -48.42 0.72ZM-48.42 -8.1C-50.06 -8.1 -51.5 -8.49 -52.74 -9.27C-53.98 -10.05 -54.94 -11.09 -55.62 -12.39C-56.3 -13.69 -56.8 -15.06 -57.12 -16.5C-57.44 -17.94 -57.6 -19.44 -57.6 -21C-57.6 -23.08 -57.34 -25.05 -56.82 -26.91C-56.3 -28.77 -55.31 -30.41 -53.85 -31.83C-52.39 -33.25 -50.58 -33.96 -48.42 -33.96C-46.26 -33.96 -44.46 -33.27 -43.02 -31.89C-41.58 -30.51 -40.6 -28.89 -40.08 -27.03C-39.56 -25.17 -39.3 -23.16 -39.3 -21C-39.3 -18.96 -39.58 -17.01 -40.14 -15.15C-40.7 -13.29 -41.7 -11.65 -43.14 -10.23C-44.58 -8.81 -46.34 -8.1 -48.42 -8.1Z M23.34 0L23.34 -42L14.82 -42L4.74 -20.58C4.46 -19.94 4.12 -19.06 3.72 -17.94C3.32 -19.06 2.98 -19.94 2.7 -20.58L-7.08 -42L-16.38 -42L-16.38 0L-7.26 0L-7.26 -20.82L-7.26 -22.14C-7.06 -21.54 -6.9 -21.1 -6.78 -20.82L3.54 0.72L13.74 -20.94C13.9 -21.26 14.08 -21.66 14.28 -22.14C14.24 -21.66 14.22 -21.22 14.22 -20.82L14.22 0Z M66.66 0L76.62 0L60 -42L51.24 -42L34.68 0L44.64 0L47.76 -8.16L63.54 -8.16ZM60.48 -16.56L50.76 -16.56L54.36 -25.62C55.04 -27.3 55.46 -28.48 55.62 -29.16C55.9 -28.16 56.32 -26.98 56.88 -25.62Z M101.04 0.72C105.56 0.72 109.3 -0.44 112.26 -2.76C115.22 -5.08 116.7 -8.22 116.7 -12.18C116.7 -13.66 116.51 -15.02 116.13 -16.26C115.75 -17.5 115.14 -18.58 114.3 -19.5C113.46 -20.42 112.65 -21.21 111.87 -21.87C111.09 -22.53 110.02 -23.15 108.66 -23.73C107.3 -24.31 106.23 -24.74 105.45 -25.02C104.67 -25.3 103.56 -25.68 102.12 -26.16C100.76 -26.64 99.81 -26.98 99.27 -27.18C98.73 -27.38 98.04 -27.68 97.2 -28.08C96.36 -28.48 95.78 -28.88 95.46 -29.28C95.14 -29.68 94.98 -30.14 94.98 -30.66C94.98 -32.94 96.68 -34.08 100.08 -34.08C103.36 -34.08 105.66 -32.58 106.98 -29.58L115.14 -32.22C114.3 -35.3 112.6 -37.82 110.04 -39.78C107.48 -41.74 104.32 -42.72 100.56 -42.72C96.04 -42.72 92.46 -41.58 89.82 -39.3C87.18 -37.02 85.86 -34.2 85.86 -30.84C85.86 -29.64 86.02 -28.51 86.34 -27.45C86.66 -26.39 87.03 -25.49 87.45 -24.75C87.87 -24.01 88.5 -23.3 89.34 -22.62C90.18 -21.94 90.9 -21.4 91.5 -21C92.1 -20.6 92.98 -20.16 94.14 -19.68C95.3 -19.2 96.19 -18.85 96.81 -18.63C97.43 -18.41 98.36 -18.1 99.6 -17.7C101.48 -17.1 102.87 -16.63 103.77 -16.29C104.67 -15.95 105.53 -15.42 106.35 -14.7C107.17 -13.98 107.58 -13.16 107.58 -12.24C107.58 -10.84 107.02 -9.77 105.9 -9.03C104.78 -8.29 103.24 -7.92 101.28 -7.92C99.4 -7.92 97.68 -8.53 96.12 -9.75C94.56 -10.97 93.3 -12.6 92.34 -14.64L84.18 -11.58C85.46 -7.74 87.57 -4.73 90.51 -2.55C93.45 -0.37 96.96 0.72 101.04 0.72Z M148.32 -33.24L160.38 -33.24L160.38 -42L127.14 -42L127.14 -33.24L139.2 -33.24L139.2 0L148.32 0Z M172.62 0L204 0L204 -8.7L181.74 -8.7L181.74 -17.34L193.5 -17.34L193.5 -25.98L181.74 -25.98L181.74 -33.36L202.8 -33.36L202.8 -42L172.62 -42Z M216.84 0L225.96 0L225.96 -14.82L234.06 -14.82L241.68 0L251.88 0L244.02 -16.2C246.38 -17.16 248.24 -18.82 249.6 -21.18C250.96 -23.54 251.64 -25.96 251.64 -28.44C251.64 -32.44 250.51 -35.7 248.25 -38.22C245.99 -40.74 242.34 -42 237.3 -42L216.84 -42ZM225.96 -23.46L225.96 -33.36L237.42 -33.36C239.1 -33.36 240.31 -32.89 241.05 -31.95C241.79 -31.01 242.16 -29.84 242.16 -28.44C242.16 -25.12 240.58 -23.46 237.42 -23.46Z" fill="#FFFFFF"></path></g></g></svg>